<?xml version="1.0" standalone="no"?>
<!DOCTYPE svg PUBLIC "-//W3C//DTD SVG 20010904//EN"
 "http://www.w3.org/TR/2001/REC-SVG-20010904/DTD/svg10.dtd">
<svg version="1.0" xmlns="http://www.w3.org/2000/svg"
 width="760.000000pt" height="760.000000pt" viewBox="0 0 760.000000 760.000000"
 preserveAspectRatio="xMidYMid meet">
<metadata>
Created by potrace 1.11, written by Peter Selinger 2001-2013
</metadata>
<g transform="translate(0.000000,760.000000) scale(0.100000,-0.100000)"
fill="#000000" stroke="none">
<path d="M769 7546 c-3 -3 -20 -8 -39 -11 -155 -27 -349 -145 -468 -285 -80
-94 -73 -85 -108 -150 -35 -64 -56 -120 -80 -210 -16 -61 -18 -211 -19 -2280
0 -1218 3 -2245 7 -2282 10 -86 60 -234 100 -301 68 -112 163 -212 268 -284
113 -76 265 -135 390 -150 25 -3 52 -7 60 -9 8 -1 165 -3 348 -3 l332 -1 0
-642 c0 -426 4 -656 11 -682 13 -47 82 -117 129 -132 45 -14 130 -9 175 10 30
13 265 186 670 496 55 42 204 155 330 250 127 95 242 183 257 194 14 12 39 31
55 42 142 108 480 365 488 371 6 5 35 28 65 51 l56 41 1479 4 c1476 3 1480 3
1555 24 99 28 263 100 280 122 3 3 23 18 45 32 55 36 148 130 201 205 56 79
98 168 125 269 l22 80 1 2225 c1 1224 -2 2253 -7 2287 -4 34 -17 88 -28 120
-11 32 -21 63 -23 68 -33 110 -180 296 -294 373 -111 74 -223 128 -312 148
-36 9 -6063 18 -6071 10z m5936 -411 c22 -5 46 -9 54 -11 8 -1 41 -16 75 -33
74 -37 154 -109 195 -175 67 -108 62 63 62 -2296 0 -1542 -3 -2160 -11 -2220
-15 -107 -57 -194 -125 -261 -73 -71 -145 -111 -242 -135 -15 -4 -707 -9
-1537 -10 -1674 -2 -1546 3 -1639 -68 -23 -18 -136 -104 -252 -191 -115 -88
-217 -165 -225 -172 -16 -13 -188 -143 -236 -178 -15 -11 -33 -26 -40 -32 -7
-7 -17 -13 -22 -13 -6 0 -12 -4 -14 -8 -1 -5 -59 -50 -128 -102 -69 -52 -127
-97 -130 -100 -3 -3 -59 -45 -125 -95 -66 -49 -163 -122 -215 -162 -52 -40
-100 -76 -105 -80 -6 -5 -20 -16 -32 -26 l-21 -18 0 544 c0 599 2 571 -62 637
-60 62 -59 62 -559 63 -308 0 -474 4 -512 12 -169 35 -315 167 -360 325 -17
60 -21 4351 -4 4445 6 33 22 83 35 110 30 63 140 173 205 205 121 59 -84 55
3056 54 1581 -1 2893 -5 2914 -9z"/>
<path d="M4057 5808 c-16 -10 -18 -2406 -2 -2411 5 -2 116 -3 245 -3 l235 1 5
470 5 470 305 0 c264 0 314 -2 370 -18 156 -44 187 -129 194 -542 3 -142 15
-260 30 -283 3 -5 8 -24 11 -43 3 -19 11 -38 16 -44 12 -12 529 -15 546 -3 10
8 10 47 1 52 -47 28 -64 46 -83 89 -27 59 -34 132 -40 427 -2 102 -6 194 -9
205 -2 11 -9 43 -16 70 -26 116 -83 192 -192 257 -62 37 -78 58 -44 58 23 0
140 81 183 127 39 42 122 183 107 183 -3 0 -2 6 3 13 26 32 45 156 40 264 -8
176 -23 224 -113 365 -75 117 -171 194 -309 249 -42 16 -153 37 -250 45 -98 9
-1224 11 -1238 2z m1226 -457 c116 -46 166 -132 173 -294 3 -79 0 -107 -16
-150 -31 -83 -102 -136 -221 -163 -32 -8 -679 -12 -680 -5 -4 17 -5 627 -1
634 2 5 158 7 346 5 326 -4 343 -5 399 -27z"/>
<path d="M1757 5802 l-147 -3 2 -1207 3 -1207 242 -1 c170 -1 243 2 246 10 2
6 3 184 2 396 -1 278 2 391 11 405 11 19 66 76 186 193 l55 53 138 -198 c77
-109 141 -200 145 -203 3 -3 10 -13 15 -22 10 -17 240 -346 263 -376 7 -9 49
-69 94 -132 44 -63 85 -118 90 -121 10 -7 619 -9 630 -2 7 4 -41 75 -147 218
-29 39 -116 158 -194 265 -79 107 -151 206 -161 220 -10 14 -83 113 -161 220
-78 107 -191 261 -251 342 -59 80 -108 150 -108 155 0 4 222 230 492 500 478
478 492 493 458 493 -19 1 -165 1 -325 0 l-290 0 -80 -83 c-44 -45 -143 -150
-220 -232 -77 -82 -172 -183 -211 -224 -40 -42 -91 -97 -115 -122 -239 -254
-302 -318 -308 -315 -3 2 -6 223 -5 490 l0 486 -35 1 c-20 0 -65 1 -101 2 -36
1 -131 1 -213 -1z"/>
</g>
</svg>
